<?xml version="1.0" encoding="UTF-8"?><svg id="designed_by_Freepik" xmlns="http://www.w3.org/2000/svg" xmlns:xlink="http://www.w3.org/1999/xlink" viewBox="0 0 879.43 453.21"><defs><style>.cls-1{fill:url(#Degradado_sin_nombre_4-8);}.cls-2{stroke:url(#Degradado_sin_nombre_4-6);}.cls-2,.cls-3,.cls-4,.cls-5,.cls-6{fill:none;stroke-miterlimit:10;stroke-width:4px;}.cls-7{fill:url(#Degradado_sin_nombre_4-10);}.cls-3{stroke:url(#Degradado_sin_nombre_4-4);}.cls-8{fill:url(#Degradado_sin_nombre_4-9);}.cls-9{fill:url(#Degradado_sin_nombre_4-12);}.cls-4{stroke:url(#Degradado_sin_nombre_4-5);}.cls-5{stroke:url(#Degradado_sin_nombre_4-3);}.cls-10{fill:#f4b73b;}.cls-11{fill:url(#Degradado_sin_nombre_4);}.cls-12{fill:url(#Degradado_sin_nombre_4-11);}.cls-6{stroke:url(#Degradado_sin_nombre_4-2);}.cls-13{fill:url(#Degradado_sin_nombre_4-7);}</style><linearGradient id="Degradado_sin_nombre_4" x1="74.59" y1="75.74" x2="74.59" y2="188.84" gradientTransform="translate(242.08 101.53) rotate(5.04)" gradientUnits="userSpaceOnUse"><stop offset="0" stop-color="#f4b73b"/><stop offset="1" stop-color="#f4ab3b"/></linearGradient><linearGradient id="Degradado_sin_nombre_4-2" x1="234.82" y1="212.83" x2="238.82" y2="212.83" gradientTransform="matrix(1,0,0,1,0,0)" xlink:href="#Degradado_sin_nombre_4"/><linearGradient id="Degradado_sin_nombre_4-3" x1="248.85" y1="247.54" x2="252.85" y2="247.54" gradientTransform="matrix(1,0,0,1,0,0)" xlink:href="#Degradado_sin_nombre_4"/><linearGradient id="Degradado_sin_nombre_4-4" x1="220.79" y1="247.55" x2="224.79" y2="247.55" gradientTransform="matrix(1,0,0,1,0,0)" xlink:href="#Degradado_sin_nombre_4"/><linearGradient id="Degradado_sin_nombre_4-5" x1="206.33" y1="248.44" x2="270.91" y2="248.44" gradientTransform="matrix(1,0,0,1,0,0)" xlink:href="#Degradado_sin_nombre_4"/><linearGradient id="Degradado_sin_nombre_4-6" x1="220.66" y1="253.45" x2="252.28" y2="253.45" gradientTransform="matrix(1,0,0,1,0,0)" xlink:href="#Degradado_sin_nombre_4"/><linearGradient id="Degradado_sin_nombre_4-7" x1="130.45" y1="241.17" x2="204.79" y2="241.17" gradientTransform="matrix(1,0,0,1,0,0)" xlink:href="#Degradado_sin_nombre_4"/><linearGradient id="Degradado_sin_nombre_4-8" x1="164.27" y1="244" x2="170.97" y2="244" gradientTransform="matrix(1,0,0,1,0,0)" xlink:href="#Degradado_sin_nombre_4"/><linearGradient id="Degradado_sin_nombre_4-9" x1="172.77" y1="243.04" x2="179.47" y2="243.04" gradientTransform="matrix(1,0,0,1,0,0)" xlink:href="#Degradado_sin_nombre_4"/><linearGradient id="Degradado_sin_nombre_4-10" x1="267.76" y1="239.66" x2="342.1" y2="239.66" gradientTransform="matrix(1,0,0,1,0,0)" xlink:href="#Degradado_sin_nombre_4"/><linearGradient id="Degradado_sin_nombre_4-11" x1="301.58" y1="242.49" x2="308.28" y2="242.49" gradientTransform="matrix(1,0,0,1,0,0)" xlink:href="#Degradado_sin_nombre_4"/><linearGradient id="Degradado_sin_nombre_4-12" x1="293.08" y1="241.53" x2="299.78" y2="241.53" gradientTransform="matrix(1,0,0,1,0,0)" xlink:href="#Degradado_sin_nombre_4"/></defs><path class="cls-11" d="m285.42,184.65c20.57,3.17,21.08,30.97,19.91,60.28-1.19,29.31,9.1,46.86,17.68,47.6,5.88.51,7.34-4.3,7.68-7.37-3.03-1.12-5.06-3.74-4.81-6.58.32-3.57,4.09-6.15,8.42-5.78,3.62.31,6.46,2.58,7.14,5.38h0c.06.22.1.44.13.67,1.36,9.78-13.72,22.11-30.48,12.65-17.14-9.69-14.57-32.81-15.62-74.22-.59-22.91-7.32-31.18-13.28-30.27-5.25.81-4.62,7.28-4.62,7.28,1.3.95,2.08,2.42,1.94,3.98-.23,2.56-2.83,4.42-5.79,4.17-2.06-.18-3.76-1.34-4.53-2.89h0c-4.04-8.01,5.13-16.62,16.24-14.9Z"/><line class="cls-6" x1="236.82" y1="47.32" x2="236.82" y2="378.34"/><line class="cls-5" x1="250.85" y1="168.16" x2="250.85" y2="326.92"/><line class="cls-3" x1="222.79" y1="168.17" x2="222.79" y2="326.92"/><path class="cls-4" d="m208.18,263.22c7-16.74,22.12-27.91,38.34-28.31,11.01-.27,19.41,4.49,23.28,7.08"/><path class="cls-2" d="m222.57,261.47c2.29-7.44,8.98-13.11,16.98-14.37,5.42-.85,9.91.57,12.01,1.39"/><path class="cls-13" d="m187.7,186.35c-20.6,2.96-21.42,30.75-20.56,60.07.87,29.32-9.61,46.76-18.18,47.41-5.9.45-7.31-4.38-7.62-7.44,3.06-1.09,5.12-3.68,4.89-6.54-.28-3.57-4.04-6.19-8.37-5.87-3.62.27-6.49,2.51-7.19,5.31h0c-.06.22-.09.44-.12.67-1.48,9.76,13.47,22.25,30.33,12.96,17.24-9.51,14.93-32.66,16.42-74.05.84-22.9,7.66-31.11,13.61-30.13,5.24.87,4.54,7.33,4.54,7.33-1.32.94-2.11,2.4-1.99,3.96.2,2.56,2.78,4.45,5.75,4.23,2.08-.16,3.79-1.3,4.57-2.84h0c4.13-7.97-4.93-16.67-16.08-15.07Z"/><polyline class="cls-1" points="164.27 243.19 170.97 235.86 170.97 252.14"/><polyline class="cls-8" points="179.47 243.86 172.77 251.18 172.77 234.9"/><path class="cls-7" d="m284.85,184.84c20.6,2.96,21.42,30.75,20.56,60.07-.87,29.32,9.61,46.76,18.18,47.41,5.9.45,7.31-4.38,7.62-7.44-3.06-1.09-5.12-3.68-4.89-6.54.28-3.57,4.04-6.19,8.37-5.87,3.62.27,6.49,2.51,7.19,5.31h0c.06.22.09.44.12.67,1.48,9.76-13.47,22.25-30.33,12.96-17.24-9.51-14.93-32.66-16.42-74.05-.84-22.9-7.66-31.11-13.61-30.13-5.24.87-4.54,7.33-4.54,7.33,1.32.94,2.11,2.4,1.99,3.96-.2,2.56-2.78,4.45-5.75,4.23-2.08-.16-3.79-1.3-4.57-2.84h0c-4.13-7.97,4.93-16.67,16.08-15.07Z"/><polyline class="cls-12" points="308.28 241.67 301.58 234.35 301.58 250.63"/><polyline class="cls-9" points="293.08 242.34 299.78 249.67 299.78 233.39"/><path class="cls-10" d="m433.66,253.1l-.83,1.22c-4.15-1.63-28.73-1.77-33.38-1.77h-18.27v-1.22c3.49.81,33.55,0,29.06-11.55l-7.47-21.19h-28.07l-9.13,27.71,5.81,7.2-.83,1.22c-3.65-1.36-11.96-1.63-15.78-1.63l-.83.14v-1.22c7.47.68,12.62-12.9,14.78-19.42l18.77-57.19-1-2.85c0-.27,6.64-12.77,6.64-13.86h3.82l26.74,75.52c2.82,8.15,3.65,12.36,9.96,18.88Zm-56.3-42.52c-1.33,4.08-.17,6.66,3.49,6.66h21.42l-14.12-39.8-10.96,33.28.17-.14Z"/><path class="cls-10" d="m493.28,201.07c.5,0,1.16-.14,1.83-.41l.5.82c-1.83,3.8-6.31,9.78-10.79,9.51-7.14-.41-8.3-14.13-16.94-14.13-2.32,0-6.64,6.66-8.14,17.79v29.48l1.99,9.51-1,.54s-5.98-1.49-21.09-1.49v-1.22s5.48.95,5.98-6.38v-46.73l-8.3-3.4v-.82c7.81-1.36,18.93-5.16,20.09-6.25.83-.81,2.33.95,2.33.95v20.24c2.49-8.42,5.31-21.73,16.28-21.73,8.47,0,11.63,13.72,17.27,13.72Z"/><path class="cls-10" d="m534.47,231.36c3.49,10.73-1,22.82-13.45,22.82-10.46,0-19.1-7.47-19.1-22.68v-42.52h-10.63v-1.36h.5c20.26-.82,14.95-21.05,14.95-21.05,2.49-4.35,9.96-5.3,9.96-5.3l1,.41c1.16,2.04.66,20.92-18.27,25.94h30.89v1.36h-14.45l.17,44.69c0,11.27-.17,19.56,8.47,18.47,8.64-1.22,12.12-10.19,8.97-20.78h1Z"/><path class="cls-10" d="m563.2,253.5l-1,.68s-6.14-1.63-21.09-1.63v-1.22s5.98,1.22,5.98-7.47v-45.78l-8.47-3.26c-2.49,0-4.82-.54-6.98-1.49l.17-.68c2.16.95,4.48,1.36,6.98,1.22,7.81-1.36,13.78-5.03,14.95-6.25.83-.68,7.47.95,7.47.95v55.42l1.99,9.51Zm-16.77-80.82c0-4.48,3.32-8.15,7.47-8.15s7.47,3.67,7.47,8.15-3.32,8.15-7.47,8.15-7.47-3.67-7.47-8.15Z"/><path class="cls-10" d="m621.33,236.25c-.66,9.78-8.64,17.52-20.76,17.52-10.96,0-23.42-6.38-27.07-13.04l.17-1.09s5.15-4.75,9.13-4.48c0,0,10.63,15.62,11.29,15.89,4.48,1.09,8.47,1.63,11.46.95,6.81-1.49,8.97-5.43,9.47-8.83,2.16-16.3-39.19-12.09-39.19-37.08,0-10.46,7.47-18.88,22.75-18.88,10.3,0,18.43,5.57,19.93,7.06v1.09s-4.65,6.11-8.64,6.79c0,0-11.79-13.58-12.46-13.58-7.31.27-15.45,2.72-15.45,10.59,0,14.81,40.36,13.04,39.36,37.08Z"/><path class="cls-10" d="m693.07,243.45c-6.14,5.57-9.13,10.46-9.13,10.46l-1.16.27-13.45-5.03v-8.96c-2.33,7.88-7.64,13.99-17.94,13.99-12.12,0-22.59-7.61-22.59-21.33,0-17.12,13.12-24.99,25.58-24.99,4.65,0,9.96,2.17,12.79,5.16-3.99-6.79-13.12-12.63-23.58-12.63-3.99-.82-8.8-6.38-8.8-6.38l-.17-.95c1.66-1.77,1.99-5.43,22.42-5.43,23.08,0,26.57,19.56,26.57,19.56v35.32c0,3.12-.17,7.88,1,7.88.33,0,1.99-1.49,3.65-3.12,2.16-2.17,3.99-4.89,3.99-4.89l.83,1.09Zm-23.75-24.18c-1.83-6.11-6.81-9.37-11.46-9.37-8.8,0-14.95,9.78-14.95,21.73,0,10.46,4.82,20.1,13.29,20.1s11.96-10.19,13.12-17.39v-15.08Zm0-12.09c0-1.22-.66-18.2-12.12-18.2-.66,0-9.3,6.38-11.63,9.64,11.29,1.63,20.76,8.56,23.75,17.11v-8.56Z"/><path class="cls-10" d="m703.03,199.04l-9.96-3.94v-.95c7.81-1.22,18.43-5.03,19.76-6.25.83-.68,2.16.54,2.16.54l.5,2.44-12.46,8.15Zm12.46,45.23l1.99,9.37-1,.68s-5.98-1.63-21.09-1.63v-1.22s5.31,1.09,5.98-6.38v-48.76l13.12-8.29c.5.27,1,.82,1,.82v55.42Zm40.02,9.37l-1.16.68s-13.95-1.63-29.06-1.63v-1.22s14.45,2.17,13.95-6.38v-35.05s.66-18.61-8.47-18.61c-8.3,0-14.95,13.85-15.28,25.13l-.67-3.8c1.5-8.96,5.98-24.99,19.43-24.99s19.26,10.87,19.26,22.28v34.23l1.99,9.37Z"/><path class="cls-10" d="m385.29,311.56h-17.6l-6.61.06c-2.23-.06-4.07-.06-4.07-.06v-.49s2.31.18,4.07-2.71v-35.41l-3.77-1.48v-.37c3.69-.62,8.76-2.28,9.3-2.84.38-.37,1.08.43,1.08.43v42.26h7.68c3.61-.43,4.61-2.16,4.61-2.16,2.69-3.15,2.54-7.16,2.23-11.78h.23c.31,2.28,2.77,13.51,3.07,13.88.23.25-.23.68-.23.68Z"/><path class="cls-10" d="m417.64,310.27v.49c-6.99,0-9.76.74-9.76.74l-.46-.25.85-4.26v-5.24c-.85,3.27-2.61,9.32-7.76,9.32-6.99,0-10.37-5.61-10.45-9.93v-14.87l-4-1.6v-.43c2.08-.31,7.68-1.42,9.3-2.9.38-.31,1.31.43,1.31.43v19.43c0,1.42-.08,8.95,3.84,8.95,4.3,0,7.38-6.29,7.76-11.35v-12.52l-4-1.6v-.43c3.77-.62,8.91-2.34,9.53-2.9.38-.31,1.08.43,1.08.43v25.05c0,3.95,2.77,3.46,2.77,3.46Z"/><path class="cls-10" d="m438.31,301.2c1.61,4.87-.46,10.36-6.22,10.36-4.84,0-8.84-3.39-8.84-10.3v-19.31h-4.92v-.62h.23c9.38-.37,6.92-9.56,6.92-9.56,1.15-1.97,4.61-2.41,4.61-2.41l.46.18c.54.93.31,9.5-8.45,11.78h14.29v.62h-6.69l.08,20.3c0,5.12-.08,8.88,3.92,8.39,4-.56,5.61-4.63,4.15-9.44h.46Z"/><path class="cls-10" d="m450.91,291.21c.92-4.13,3.15-9.81,8.68-9.81,5.99,0,8.91,4.94,8.91,10.12v15.55l.92,4.26-.46.31s-2.77-.74-9.76-.74v-.55s2.46.49,2.77-2.84v-15.98s.23-8.39-4-8.39c-3.77,0-6.76,5.98-7.07,11.04v12.89l.92,4.26-.46.31s-2.77-.74-9.76-.74v-.55s2.54.49,2.77-2.84v-34.42l-3.84-1.54v-.37c3.69-.62,8.22-2.59,8.84-3.02.46-.31,1.54-.06,1.54.62v22.46Z"/><path class="cls-10" d="m483.03,311.26l-.46.31s-2.84-.74-9.76-.74v-.55s2.77.55,2.77-3.39v-20.79l-3.92-1.48c-1.15,0-2.23-.25-3.23-.68l.08-.31c1,.43,2.07.62,3.23.56,3.61-.62,6.38-2.28,6.92-2.84.38-.31,3.46.43,3.46.43v25.17l.92,4.32Zm-7.76-36.71c0-2.04,1.54-3.7,3.46-3.7s3.46,1.67,3.46,3.7-1.54,3.7-3.46,3.7-3.46-1.67-3.46-3.7Z"/><path class="cls-10" d="m515.23,300.77c-.08,6.54-5.3,10.8-11.99,10.8-9.3,0-15.83-5.92-15.83-15.11s6.15-15.11,15.52-15.11c2.84,0,10.68,2.84,10.76,6.54-.69.8-2,1.79-3,1.79-.61,0-1-.31-1.31-.8h-5.53c6.46,1.11,11.37,5.68,11.37,11.91Zm-21.36-3.08c0,7.03,3.53,13.26,9.91,13.26,5.92,0,10.91-4.32,10.91-10.18,0-6.29-5.99-11.91-13.99-11.91h-5.38c-1,2.96-1.46,6.29-1.46,8.82Zm1.69-9.44h13.45c-1.08-2.28-1.61-6.42-5.99-6.42-3.69,0-6.07,2.84-7.45,6.42Z"/><path class="cls-10" d="m542.89,287.44c.23,0,.54-.06.85-.18l.23.37c-.85,1.73-2.92,4.44-5,4.32-3.3-.19-3.84-6.42-7.84-6.42-1.08,0-3.07,3.02-3.77,8.08v13.39l.92,4.32-.46.25s-2.77-.68-9.76-.68v-.55s2.54.43,2.77-2.9v-21.22l-3.84-1.54v-.37c3.61-.62,8.76-2.34,9.3-2.84.38-.37,1.08.43,1.08.43v9.19c1.15-3.82,2.46-9.87,7.53-9.87,3.92,0,5.38,6.23,7.99,6.23Z"/><path class="cls-10" d="m586.39,268.13v4.63l-2.23,5.49h-.38c-.31-2.1-2-8.21-3.92-9.44h-5.46v38.19l1.15,4.26-.62.31s-3.54-.74-9.61-.74v-.55s2.08.43,2.69-2.22v-39.24h-5.53c-1.92,1.23-4.07,7.16-4.38,9.25h-.38l-1.69-5.31v-4.63h30.35Z"/><path class="cls-10" d="m615.66,296.45c0,9.01-6.46,15.11-14.91,15.11s-14.91-6.11-14.91-15.11,6.38-15.11,14.91-15.11,14.91,6.05,14.91,15.11Zm-13.91-14.5c-5-.56-8.76,4.87-9.38,13.51-.61,8.7,2.38,14.87,7.38,15.42,5.07.56,8.76-4.87,9.38-13.51.62-8.64-2.3-14.81-7.38-15.42Z"/><path class="cls-10" d="m649.17,296.45c0,9.01-6.46,15.11-14.91,15.11s-14.91-6.11-14.91-15.11,6.38-15.11,14.91-15.11,14.91,6.05,14.91,15.11Zm-13.91-14.5c-5-.56-8.76,4.87-9.38,13.51-.61,8.7,2.38,14.87,7.38,15.42,5.07.56,8.76-4.87,9.38-13.51.62-8.64-2.31-14.81-7.38-15.42Z"/><path class="cls-10" d="m661.46,311.32l-.46.25s-2.69-.74-9.68-.74v-.49s2.77.49,2.77-3.46v-33.93l-3.77-1.48v-.37c3.69-.62,8.38-2.22,9.22-2.84.38-.31,1.15.43,1.15.43v38.87l.77,3.76Z"/><path class="cls-10" d="m688.59,303.42c-.31,4.44-4,7.96-9.61,7.96-5.07,0-10.83-2.9-12.53-5.92l.08-.49s2.38-2.16,4.23-2.04c0,0,4.92,7.09,5.23,7.22,2.08.49,3.92.74,5.3.43,3.15-.68,4.15-2.47,4.38-4.01,1-7.4-18.13-5.49-18.13-16.84,0-4.75,3.46-8.57,10.53-8.57,4.76,0,8.53,2.53,9.22,3.21v.49s-2.15,2.78-4,3.08c0,0-5.46-6.17-5.76-6.17-3.38.12-7.15,1.23-7.15,4.81,0,6.72,18.67,5.92,18.21,16.84Z"/></svg>